<svg width="26" height="18" viewBox="0 0 26 18" fill="none" xmlns="http://www.w3.org/2000/svg">
<g id="twitter-6 1" clip-path="url(#clip0_2_26)">
<path id="Vector" d="M9.93414 17.7895C17.2106 17.7895 21.1898 11.664 21.1898 6.35223C21.1898 6.17827 21.1864 6.0051 21.1786 5.83265C21.9529 5.26337 22.6211 4.5585 23.152 3.7511C22.4431 4.07132 21.6804 4.28684 20.8802 4.38401C21.6969 3.88637 22.3239 3.09909 22.6198 2.16066C21.8432 2.62876 20.9937 2.95874 20.1078 3.13639C19.3859 2.35504 18.3581 1.86636 17.2201 1.86636C15.0355 1.86636 13.2639 3.66655 13.2639 5.88556C13.2639 6.20104 13.2987 6.50779 13.3666 6.80213C10.0787 6.63403 7.16322 5.03447 5.21204 2.60225C4.86062 3.2157 4.67577 3.91291 4.67639 4.62266C4.67639 6.01728 5.37476 7.24842 6.43682 7.9687C5.8086 7.94921 5.19417 7.77678 4.64519 7.46593C4.6446 7.48281 4.6446 7.49925 4.6446 7.51728C4.6446 9.464 6.0082 11.0894 7.81833 11.4577C7.47836 11.5518 7.12755 11.5993 6.77519 11.5991C6.52073 11.5991 6.27273 11.5737 6.03171 11.5267C6.53535 13.1239 7.99574 14.2861 9.72722 14.3186C8.37323 15.397 6.66762 16.0393 4.81387 16.0393C4.49852 16.0395 4.18343 16.0209 3.87024 15.9836C5.62103 17.1239 7.69993 17.7892 9.93434 17.7892" fill="#03045E"/>
</g>
<defs>
<clipPath id="clip0_2_26">
<rect width="26" height="17.7895" fill="white"/>
</clipPath>
</defs>
</svg>
